<svg viewBox="0 0 200 200" xmlns="http://www.w3.org/2000/svg">
  <defs>
    <linearGradient id="gradient" x1="0%" y1="0%" x2="100%" y2="100%">
      <stop offset="0%" style="stop-color:#22D3EE" />
      <stop offset="50%" style="stop-color:#818CF8" />
      <stop offset="100%" style="stop-color:#E879F9" />
    </linearGradient>
  </defs>
  <path fill="url(#gradient)" d="M11.6,-30.7C12.4,-19.7,8.6,-11.2,6.9,-6.6C5.2,-1.9,5.4,-0.9,16.1,6.1C26.7,13.2,47.6,26.4,52.8,37.1C58.1,47.9,47.7,56.2,36.3,55.9C24.8,55.7,12.4,46.9,3.7,40.4C-4.9,33.9,-9.8,29.7,-11.6,24.4C-13.3,19,-11.8,12.5,-13.7,8.2C-15.7,4,-21,2,-33.3,-7.1C-45.6,-16.2,-64.9,-32.4,-65.8,-41.5C-66.6,-50.6,-49.1,-52.6,-35.1,-56.1C-21,-59.5,-10.5,-64.4,-2.6,-60C5.4,-55.5,10.8,-41.8,11.6,-30.7Z" transform="translate(100 100)" />
</svg>
